<svg xmlns="http://www.w3.org/2000/svg" xmlns:xlink="http://www.w3.org/1999/xlink" width="58" height="62"><defs><path id="A" d="M0 .024h57.852V54H0z"/><path id="B" d="M.374.087h15.8V15.96H.374z"/></defs><g transform="translate(0 -1)" fill="none" fill-rule="evenodd"><g transform="translate(0 8.913)"><mask id="C" fill="#fff"><use xlink:href="#A"/></mask><path d="M2.46 27.203a9.74 9.74 0 0 0-.456-1.894c-.55-1.557-1.547-2.955-1.88-4.573-.756-3.672 2.052-7.077 4.913-9.5C11.68 5.61 20.155.8 29.046.8c5.725 0 9.9 3.084 15.316 3.232 4.163.113 8.505 2.546 9.678 6.543.927 3.16.768 5.94 2.297 8.953 1.613 3.177 2.157 7.106.543 10.282-.807 1.59-2.083 2.878-3.2 4.274-3.602 4.55-5.012 11.426-9.21 15.4C40.84 52.93 33.846 54 29.046 54 20.772 54 14.9 50.78 9.17 45.306c-3.057-2.92-5.908-4.356-6.624-8.87-.485-3.063.346-6.183-.084-9.232M29.046.8V.024" fill="#f1d241" mask="url(#C)"/></g><g transform="translate(32 .913)"><mask id="D" fill="#fff"><use xlink:href="#B"/></mask><path d="M.602 15.96S-2.728.087 16.082.087c0 0 1.8 14.794-10.44 15.874" fill="#4c884b" mask="url(#D)"/></g></g></svg>