<svg xmlns="http://www.w3.org/2000/svg" xmlns:xlink="http://www.w3.org/1999/xlink" width="174" height="150"><g fill="#EA622C" fill-rule="evenodd"><path d="M25.843 115.868c1.365-1.515 2.898-2.95 4.078-4.645 1.418-2.038 2.104-4.304 3.41-6.357 3.218-5.052 2.783-9.705 4.206-15.082.568-2.148 1.335-3.457 1.855-5.19a4.55 4.55 0 0 1 .874-1.582C42.34 80.5 43.24 75.1 44.02 72.195c2.085-7.782 3.325-15.815 4.64-23.72.55-3.307 1.874-9.48-1.162-11.735-2.423-1.8-5.827-2.844-8.82-2.646-.74.05-1.35.6-1.527 1.328-1.278 5.268-1.78 10.468-2.6 15.552-.855 5.37-4.176 9.974-4.74 15.07-.535 4.853-3.03 10.492-3.203 16.063-.182 5.85.05 11.243.235 17.008.096 3.002-.588 6.1-.745 8.985-.113 2.095-4.505 12.475-.264 7.768"/><use xlink:href="#B"/><use xlink:href="#C"/><path d="M121.843 147.868c1.365-1.515 2.898-2.95 4.078-4.645 1.418-2.038 2.104-4.304 3.41-6.357 3.218-5.052 2.783-9.705 4.206-15.082.568-2.148 1.335-3.457 1.855-5.19a4.55 4.55 0 0 1 .874-1.582c2.073-2.51 2.975-7.912 3.754-10.817 2.085-7.782 3.325-15.815 4.64-23.72.55-3.307 1.874-9.48-1.162-11.735-2.423-1.8-5.827-2.844-8.82-2.646-.74.05-1.35.6-1.527 1.328-1.278 5.268-1.78 10.468-2.6 15.552-.855 5.37-4.176 9.974-4.74 15.07-.535 4.853-3.03 10.492-3.203 16.063-.182 5.85.05 11.243.235 17.008.096 3.002-.588 6.1-.745 8.985-.113 2.095-4.505 12.475-.264 7.768"/><use xlink:href="#B" x="96" y="32"/><path d="M9.882 148.565c.785-1.6 1.732-3.172 2.318-4.88.704-2.052.738-4.117 1.345-6.154 1.496-5.013.01-8.81-.083-13.66-.038-1.938.293-3.22.314-4.8.007-.533.142-1.05.355-1.538 1.143-2.606.604-7.352.56-9.976-.115-7.03-1-14.063-1.795-21.008-.332-2.906-.7-8.402-3.8-9.558-2.474-.924-5.592-.978-8.066-.088-.612.22-.993.83-.967 1.482.2 4.726 1.017 9.207 1.557 13.665.57 4.7-1.12 9.37-.37 13.78.716 4.198-.03 9.53 1.164 14.242 1.253 4.95 2.745 9.415 4.287 14.204.802 2.494.97 5.248 1.532 7.713.408 1.784-.795 11.548 1.645 6.577"/><use xlink:href="#C" x="-36.202" y="-56.623"/><path d="M166.87 110.56c.912-1.82 2.005-3.603 2.693-5.55.826-2.34.894-4.714 1.6-7.04 1.765-5.725.14-10.127.102-15.707-.015-2.23.378-3.696.425-5.5.016-.612.175-1.205.424-1.76 1.33-2.966.79-8.437.778-11.454-.03-8.083-.93-16.193-1.727-24.196-.333-3.35-.672-9.676-4.16-11.085-2.785-1.125-6.312-1.266-9.124-.306-.695.237-1.135.928-1.115 1.68.147 5.438 1.018 10.6 1.565 15.75.58 5.43-1.402 10.745-.616 15.83.75 4.844-.17 10.953 1.11 16.402 1.347 5.72 2.97 10.893 4.645 16.437.872 2.887 1.02 6.058 1.622 8.906.436 2.06-1.066 13.255 1.766 7.603"/><path d="M159.945 28.187c-2.3-2.667-2.378-7.678-3.145-10.87-.5-2.078-1.382-4.057-2.632-5.8-1.184-1.64-2.733-2.68-4.17-3.953-.32-.283-.25-.805.132-1a13.48 13.48 0 0 0 1.19-.65 1.27 1.27 0 0 1 1.615.25c1.525 1.727 2.57 3.843 3.46 5.958.537 1.277 1.014 2.577 1.522 3.865.172.437 1.3 2.432 1.563 3.306.027.1.155.097.2.01C162 13.343 157.8 6.66 156.264.93c-.106-.4.2-.788.62-.758 1.73.128 2.108 1.88 2.385 3.48.052.3.315.515.616.5.655-.033 1.56-.133 1.878.095.4.277.424 1.6.537 2.096.324 1.442.744 2.86 1.15 4.282.77 2.706 1.303 5.325 1.555 8.1a.28.28 0 0 0 .512.133c2.44-3.62.494-8.418-.23-12.56-.2-1.084 1.02-1.928 1.916-1.3.1.077.202.173.274.292.44.734.3 2.567.4 3.428.268 2.35.497 4.706.562 7.07.1 3.638-.023 7.76-1.442 11.17-1.022 2.457-4.55 3.626-6.675 1.608a4.87 4.87 0 0 1-.37-.39m-72.736 89.66c.88-1.835 1.942-3.637 2.596-5.596.785-2.355.8-4.73 1.487-7.068 1.665-5.755-.037-10.128-.172-15.706-.053-2.228.313-3.702.33-5.517.005-.612.154-1.207.393-1.766 1.278-3 .642-8.45.578-11.466-.17-8.08-1.213-16.174-2.15-24.162-.392-3.342-.84-9.663-4.354-11-2.805-1.076-6.333-1.155-9.128-.147-.7.25-1.12.947-1.086 1.7.242 5.434 1.203 10.6 1.84 15.72.673 5.418-1.214 10.768-.34 15.84.834 4.83.02 10.955 1.397 16.38 1.446 5.697 3.16 10.84 4.93 16.354.922 2.872 1.126 6.04 1.778 8.876.472 2.053-.835 13.272 1.9 7.57"/><path d="M78.855 35.608c-2.357-2.626-2.512-7.635-3.334-10.813-.536-2.07-1.452-4.032-2.733-5.744-1.212-1.62-2.78-2.633-4.238-3.88-.324-.277-.264-.8.115-.993a13.97 13.97 0 0 0 1.177-.67 1.27 1.27 0 0 1 1.62.223c1.555 1.7 2.635 3.797 3.563 5.897.56 1.267 1.06 2.56 1.6 3.838.18.434 1.342 2.4 1.62 3.278.03.1.156.095.2.006 2.236-6.02-2.1-12.628-3.727-18.33-.113-.398.196-.792.607-.77 1.73.098 2.14 1.844 2.445 3.438.057.298.324.5.625.488.654-.044 1.556-.16 1.88.062.393.27.452 1.583.574 2.086.35 1.437.793 2.848 1.223 4.26.818 2.692 1.396 5.302 1.696 8.07a.28.28 0 0 0 .514.124c2.377-3.663.347-8.425-.448-12.554-.2-1.08.988-1.946 1.893-1.325.1.075.205.17.28.287.452.726.345 2.56.458 3.42.3 2.344.58 4.697.685 7.06.165 3.636.112 7.76-1.247 11.194-.98 2.474-4.485 3.705-6.646 1.725a5.24 5.24 0 0 1-.378-.382m36.948 77.193c.585-1.684 1.333-3.36 1.706-5.125.45-2.122.23-4.176.585-6.272.874-5.158-1.063-8.745-1.748-13.55-.273-1.92-.102-3.233-.273-4.803-.058-.53.012-1.06.165-1.57.817-2.726-.297-7.37-.66-9.97-.97-6.962-2.708-13.837-4.34-20.633-.683-2.843-1.72-8.253-4.937-9.024-2.568-.615-5.67-.3-8.017.896-.58.293-.885.944-.78 1.6.765 4.668 2.13 9.014 3.2 13.374 1.14 4.605.03 9.438 1.313 13.72 1.222 4.08 1.132 9.46 2.9 13.994 1.847 4.76 3.872 9 5.986 13.575 1.1 2.377 1.6 5.1 2.46 7.47.622 1.72.618 11.56 2.434 6.327"/></g><defs ><path id="B" d="M40.62 34.85c-1.558-3.16-.313-7.998-.227-11.266.056-2.128-.288-4.258-1.054-6.248-.726-1.884-1.965-3.283-3.034-4.876a.6.6 0 0 1 .388-.919 14.23 14.23 0 0 0 1.329-.318c.597-.175 1.23.105 1.5.657 1.036 2.055 1.5 4.358 1.817 6.623.2 1.366.316 2.74.474 4.1.054.465.633 2.674.66 3.583.003.094.125.133.182.057 3.847-5.148 1.477-12.664 1.485-18.57.001-.412.41-.704.803-.57 1.653.57 1.565 2.352 1.417 3.962-.028.3.173.576.47.64.648.137 1.555.274 1.808.575.307.366-.002 1.64-.024 2.155-.06 1.47-.023 2.944.001 4.415.044 2.802-.12 5.458-.6 8.19-.046.262.262.433.464.26 3.328-2.854 2.682-7.97 3.06-12.14.098-1.09 1.5-1.59 2.206-.748.086.103.152.218.19.352.237.82-.378 2.546-.507 3.4-.353 2.33-.746 4.655-1.3 6.946-.852 3.526-2.05 7.458-4.326 10.373-1.64 2.1-5.386 2.316-6.933-.174a5.32 5.32 0 0 1-.261-.47"/><path id="C" d="M55.234 129.635c1.026-1.458 2.207-2.862 3.053-4.456 1.017-1.916 1.372-3.95 2.29-5.868 2.262-4.718 1.39-8.7 2.055-13.506.266-1.92.793-3.136 1.06-4.692.09-.525.304-1.016.592-1.463 1.536-2.395 1.747-7.167 2.115-9.766.986-6.96 1.21-14.047 1.514-21.03.127-2.922.622-8.408-2.258-10.035-2.3-1.3-5.37-1.84-7.953-1.35-.638.12-1.11.663-1.187 1.313-.55 4.698-.436 9.252-.6 13.74-.172 4.74-2.572 9.08-2.52 13.552.05 4.258-1.52 9.407-1.08 14.248.464 5.084 1.24 9.728 2.012 14.7.402 2.59.136 5.335.307 7.858.124 1.826-2.592 11.282.596 6.753"/></defs></svg>
